<svg xmlns="http://www.w3.org/2000/svg" viewBox="238.118 13.784 11.764 11.764" width="16" height="16" fill="none">
  <path d="M11.02 0.354 C11.215 0.158 11.215 -0.158 11.02 -0.354 C10.825 -0.549 10.508 -0.549 10.313 -0.354 L10.667 0 L11.02 0.354 Z M3.333 7.333 L2.98 7.687 C3.175 7.882 3.492 7.882 3.687 7.687 L3.333 7.333 Z M0.354 3.646 C0.158 3.451 -0.158 3.451 -0.354 3.646 C-0.549 3.842 -0.549 4.158 -0.354 4.354 L0 4 L0.354 3.646 Z M10.667 0 L10.313 -0.354 L2.98 6.98 L3.333 7.333 L3.687 7.687 L11.02 0.354 L10.667 0 Z M3.333 7.333 L3.687 6.98 L0.354 3.646 L0 4 L-0.354 4.354 L2.98 7.687 L3.333 7.333 Z" fill="currentColor" fill-rule="nonzero" transform="matrix(1 0 0 1 238.667 16)"/>
</svg>
